<?xml version="1.0" encoding="utf-8"?><svg xmlns="http://www.w3.org/2000/svg" xmlns:xlink="http://www.w3.org/1999/xlink" width="1787" height="853" preserveAspectRatio="xMidYMid" viewBox="0 0 1787 853" style="z-index:1;margin-right:-1.6px;display:block;animation-play-state:paused" ><g transform="translate(893.5,426.5) scale(1,1) translate(-893.5,-426.5)" style="transform:matrix(1, 0, 0, 1, 0, 0);animation-play-state:paused" ><linearGradient id="lg-0.41276987627850215" x1="0" x2="1" y1="0" y2="0" style="animation-play-state:paused" ><stop stop-color="#2db4a5" offset="0" style="animation-play-state:paused" ></stop>

  
<stop stop-color="#7edfe5" offset="1" style="animation-play-state:paused" ></stop></linearGradient>
<path d="M 1160 427 C 1160 473.4 1114.6 550.8 1084.4 586.8 C 1054.2 622.8 980.2 654 934.6 661.6 C 889 669.2 823.4 640.4 783.6 616.8 C 743.8 593.2 661.2 560.2 645.2 516.6 C 629.2 473 590.2 365.8 606.2 322.2 C 622.2 278.6 725.4 228 765.2 204.4 C 805 180.8 880.4 232.4 926 240 C 971.6 247.6 1092.8 197.6 1123 233.6 C 1153.2 269.6 1160 380.6 1160 427" fill="url(#lg-0.41276987627850215)" opacity="0.12000000000000001" style="opacity:0.12;animation-play-state:paused" ></path>
<path d="M 1195.2 427 C 1195.2 477.4 1148 573.8 1115.4 612.4 C 1082.8 651 982.4 642.2 933 651 C 883.6 659.8 802.4 685 758.8 660.2 C 715.2 635.4 637.2 573.4 620.2 526 C 603.2 478.6 599.6 373 616.4 325.6 C 633.2 278.2 718.4 224 762 199.2 C 805.6 174.4 881.6 204 931 212.8 C 980.4 221.6 1060.6 220.8 1093.2 259.4 C 1125.8 298 1195.2 376.6 1195.2 427" fill="url(#lg-0.41276987627850215)" opacity="0.12000000000000001" style="opacity:0.12;animation-play-state:paused" ></path>
<path d="M 1125.4 427 C 1125.4 464.2 1097.4 548.8 1073.6 577.6 C 1049.8 606.4 961.2 597.2 925 603.4 C 888.8 609.6 838.4 595.6 806.4 577 C 774.4 558.4 707.2 533.8 694.8 498.8 C 682.4 463.8 681 388.8 693.4 353.8 C 705.8 318.8 771.4 288.8 803.4 270.2 C 835.4 251.6 887.8 246.8 924 253 C 960.2 259.2 1023.8 268 1047.6 296.8 C 1071.4 325.6 1125.4 389.8 1125.4 427" fill="url(#lg-0.41276987627850215)" opacity="0.12000000000000001" style="opacity:0.12;animation-play-state:paused" ></path>
<path d="M 1221.6 427 C 1221.6 480 1159.2 580.2 1125.2 621.2 C 1091.2 662.2 987.6 654.4 935.6 663.4 C 883.6 672.4 797.2 699.4 751.2 672.6 C 705.2 645.8 576.2 599 558.2 549 C 540.2 499 589.8 372 607.8 322 C 625.8 272 701.4 200 747.4 173.2 C 793.4 146.4 882.8 182.4 934.8 191.4 C 986.8 200.4 1126.8 161.4 1160.8 202.2 C 1194.8 243 1221.6 374 1221.6 427" fill="url(#lg-0.41276987627850215)" opacity="0.12000000000000001" style="opacity:0.12;animation-play-state:paused" ></path>
<path d="M 1127.4 427 C 1127.4 463 1060.6 519.4 1037.6 547.2 C 1014.6 575 951 549.4 916 555.4 C 881 561.4 838.2 594.2 807.2 576.2 C 776.2 558.2 697.2 536 685.2 502 C 673.2 468 659.6 380 671.6 346 C 683.6 312 767.4 279.4 798.4 261.4 C 829.4 243.4 882 286.6 917 292.6 C 952 298.6 1021.2 272.6 1044.2 300.4 C 1067.2 328.2 1127.4 391 1127.4 427" fill="url(#lg-0.41276987627850215)" opacity="0.12000000000000001" style="opacity:0.12;animation-play-state:paused" ></path></g></svg>